HIERARCHY
ROOT Bip001_Pelvis
{
  OFFSET 7.937 94.8971 -8.5489
  CHANNELS 6 Xposition Yposition Zposition Zrotation Xrotation Yrotation
  JOINT Bip001_Spine
  {
    OFFSET 1.44608e-005 10.4157 -0.0118244
    CHANNELS 3 Zrotation Xrotation Yrotation
    JOINT Bip001_L_Thigh
    {
      OFFSET 11.2582 -10.4157 0.0118432
      CHANNELS 3 Zrotation Xrotation Yrotation
      JOINT Bip001_L_Calf
      {
        OFFSET -0.720717 -44.8687 0.366937
        CHANNELS 3 Zrotation Xrotation Yrotation
        JOINT Bip001_L_Foot
        {
          OFFSET -0.664439 -41.3745 -3.62995
          CHANNELS 3 Zrotation Xrotation Yrotation
          JOINT Bip001_L_Toe0
          {
            OFFSET 0.0541047 -10.4146 13.4033
            CHANNELS 3 Zrotation Xrotation Yrotation
            End Site
            {
              OFFSET -1.04503e-005 0 7.70137
            }
          }
        }
      }
    }
    JOINT Bip001_R_Thigh
    {
      OFFSET -11.2582 -10.4156 0.0118122
      CHANNELS 3 Zrotation Xrotation Yrotation
      JOINT Bip001_R_Calf
      {
        OFFSET 0.72059 -44.8687 0.36676
        CHANNELS 3 Zrotation Xrotation Yrotation
        JOINT Bip001_R_Foot
        {
          OFFSET 0.664321 -41.3745 -3.62979
          CHANNELS 3 Zrotation Xrotation Yrotation
          JOINT Bip001_R_Toe0
          {
            OFFSET -0.05417 -10.4146 13.4033
            CHANNELS 3 Zrotation Xrotation Yrotation
            End Site
            {
              OFFSET -1.04873e-005 0 7.70137
            }
          }
        }
      }
    }
    JOINT Bip001_Spine1
    {
      OFFSET 1.90638e-005 14.8539 1.10727
      CHANNELS 3 Zrotation Xrotation Yrotation
      JOINT Bip001_Spine2
      {
        OFFSET 2.28934e-005 14.7848 -1.7233
        CHANNELS 3 Zrotation Xrotation Yrotation
        JOINT Bip001_Neck
        {
          OFFSET 2.24514e-005 15.6905 -0.498826
          CHANNELS 3 Zrotation Xrotation Yrotation
          JOINT Bip001_L_Clavicle
          {
            OFFSET 6.17691 -0.000591152 0.00852867
            CHANNELS 3 Zrotation Xrotation Yrotation
            JOINT Bip001_L_UpperArm
            {
              OFFSET 11.773 -0.0611878 0.00197697
              CHANNELS 3 Zrotation Xrotation Yrotation
              JOINT Bip001_L_Forearm
              {
                OFFSET 26.4515 0.0817568 -2.19579
                CHANNELS 3 Zrotation Xrotation Yrotation
                JOINT Bip001_L_Hand
                {
                  OFFSET 32.8677 0.156744 1.67112
                  CHANNELS 3 Zrotation Xrotation Yrotation
                  JOINT Bip001_L_Finger0
                  {
                    OFFSET 6.16268 -2.25226 6.01674
                    CHANNELS 3 Zrotation Xrotation Yrotation
                    End Site
                    {
                      OFFSET 4.30499 -1.46662 0.618148
                    }
                  }
                  JOINT Bip001_L_Finger1
                  {
                    OFFSET 11.2957 -0.718374 -0.201963
                    CHANNELS 3 Zrotation Xrotation Yrotation
                    End Site
                    {
                      OFFSET 6.31952 -0.405163 -0.0802303
                    }
                  }
                }
              }
            }
          }
          JOINT Bip001_R_Clavicle
          {
            OFFSET -6.17691 -0.000574027 0.00851165
            CHANNELS 3 Zrotation Xrotation Yrotation
            JOINT Bip001_R_UpperArm
            {
              OFFSET -11.773 -0.0611516 0.00194365
              CHANNELS 3 Zrotation Xrotation Yrotation
              JOINT Bip001_R_Forearm
              {
                OFFSET -26.4514 0.0822334 -2.19736
                CHANNELS 3 Zrotation Xrotation Yrotation
                JOINT Bip001_R_Hand
                {
                  OFFSET -32.8677 0.156817 1.67144
                  CHANNELS 3 Zrotation Xrotation Yrotation
                  JOINT Bip001_R_Finger0
                  {
                    OFFSET -6.1627 -2.25224 6.0167
                    CHANNELS 3 Zrotation Xrotation Yrotation
                    End Site
                    {
                      OFFSET -4.30499 -1.46662 0.618134
                    }
                  }
                  JOINT Bip001_R_Finger1
                  {
                    OFFSET -11.2958 -0.718344 -0.201994
                    CHANNELS 3 Zrotation Xrotation Yrotation
                    End Site
                    {
                      OFFSET -6.31952 -0.405146 -0.0802475
                    }
                  }
                }
              }
            }
          }
          JOINT Bip001_Head
          {
            OFFSET 1.11782e-005 11.4912 2.09908
            CHANNELS 3 Zrotation Xrotation Yrotation
            End Site
            {
              OFFSET 2.95144e-005 21.2823 -2.83069e-005
            }
          }
        }
      }
    }
  }
}
MOTION
Frames:	16
Frame Time:	0.04
8.12231 95.4501 -8.43863 -1.32736 2.28982 12.9314 -0.728631 0.0327074 2.8616 5.24559 -13.908 3.0983 -0.674413 16.6455 -5.61436 -2.04827 -4.96166 -3.43748 0.61711 -10.028 -0.275052 -6.66426 -4.14146 -5.87717 0.600239 12.3783 -2.28587 0.756679 -8.03435 -14.4268 -0.115021 -11.575 0.219115 -1.4894 0.0281916 5.72401 -1.4894 0.0281928 5.72403 -4.47409 1.63071 0.210591 -27.0496 5.53509 -15.065 -41.3161 38.3211 -0.713666 11.3787 5.01972 -21.6991 -3.8584 -0.068292 -0.584321 3.18055e-015 9.54166e-015 -6.36111e-015 1.59028e-015 6.36111e-015 -3.18055e-015 7.55923 2.07817 28.7782 5.09705 -4.79602 61.3388 -41.4291 17.1478 34.8608 -32.8798 13.6234 -11.2438 -4.77083e-015 6.36111e-015 -7.15625e-015 -4.77083e-015 9.54167e-015 -7.15625e-015 -0.372287 3.56264 -1.07784 
8.15149 95.4506 -8.37517 -1.40763 2.46293 13.2727 -0.77806 -0.00166279 2.9655 5.24982 -14.1176 2.72823 -0.73536 16.6906 -5.58409 -2.00807 -4.97134 -3.49832 0.614453 -10.035 -0.298052 -6.57296 -4.093 -6.08991 0.593633 12.2291 -2.35416 0.672146 -8.00281 -14.5859 -0.0237347 -11.5885 0.190083 -1.57571 -0.0441457 5.93237 -1.57572 -0.0441454 5.93238 -4.58281 1.33437 0.0582894 -27.0465 5.75366 -14.818 -41.371 38.257 -0.493376 10.9974 5.15574 -21.2812 -3.86315 -0.0545059 -0.864329 4.77083e-015 6.36111e-015 -0 1.59028e-015 6.36111e-015 -0 7.67716 2.42131 29.1006 0.536702 -4.6874 61.2317 -42.4298 22.8803 31.9489 -35.5695 17.6508 -14.2499 -3.57812e-015 -6.36111e-015 -5.26779e-015 -3.18055e-015 0 -1.39149e-015 -0.468238 3.82605 -1.22317 
8.18026 95.4526 -8.31205 -1.4701 2.5456 13.5283 -0.821277 -0.025584 3.05276 5.27604 -14.2231 2.63894 -0.732079 16.7329 -5.70674 -1.97807 -4.99074 -3.61121 0.615661 -10.0394 -0.298978 -6.49388 -3.98059 -6.1426 0.639751 12.0672 -2.49006 0.5893 -7.9599 -14.7406 0.048661 -11.6026 0.179086 -1.65274 -0.0953469 6.10728 -1.65274 -0.0953499 6.10727 -4.64001 1.548 -0.0543917 -27.2271 5.64849 -15.0529 -41.5323 38.0608 0.0805742 10.7594 5.14448 -20.9265 -4.04511 -0.0661206 -0.742448 -1.59028e-015 -3.18055e-015 1.59028e-015 -3.18055e-015 -3.18056e-015 3.18055e-015 8.73615 2.47756 28.8476 -2.84835 -3.09968 59.174 -44.0215 18.3925 33.2443 -36.9551 17.1559 -10.8411 -7.95139e-016 3.18055e-015 9.0944e-015 -3.97569e-016 3.18056e-015 9.64106e-015 -0.502734 3.71752 -1.35136 
8.22392 95.4471 -8.23974 -1.38531 2.39847 13.6072 -0.842493 -0.003545 3.04583 5.22777 -14.0261 2.66915 -0.723941 16.704 -5.8768 -1.94747 -5.02594 -3.57978 0.618593 -10.0372 -0.290248 -6.53713 -3.77733 -6.07124 0.666075 12.09 -2.6085 0.617765 -8.03342 -14.7534 0.0401218 -11.6057 0.1779 -1.69117 -0.0519884 6.09331 -1.68727 -0.0520011 6.09377 -4.62777 1.71676 0.120239 -26.9592 5.4933 -15.1937 -42.2073 37.9963 0.525161 10.4478 5.21971 -20.4076 -4.10997 -0.0377139 -0.834527 -1.59028e-015 -3.18055e-015 3.18055e-015 -1.59028e-015 -3.18056e-015 -0 7.7089 1.83761 27.4984 -3.19106 -3.73213 60.7161 -42.5772 19.0991 32.5518 -33.6345 16.0503 -11.776 -1.19271e-015 6.36111e-015 3.08116e-015 -1.39149e-015 6.36111e-015 7.65321e-015 -0.976004 4.18875 -1.05835 
8.29167 95.4515 -8.18373 -1.21537 2.0466 13.493 -0.845964 0.0709055 2.97202 5.15692 -13.5796 2.97635 -0.665719 16.5896 -6.02516 -1.92022 -5.02965 -3.58955 0.620412 -10.0343 -0.287956 -6.6517 -3.46119 -6.05019 0.676005 12.1115 -2.60585 0.651555 -8.05884 -14.5756 0.0613138 -11.6154 0.203319 -1.68694 0.0976522 5.94796 -1.6992 0.0976533 5.94798 -4.98292 1.96786 0.537043 -26.7198 5.22932 -15.0223 -42.274 38.4339 0.598637 10.2399 5.31946 -19.7801 -4.52784 -0.144206 -0.715282 1.59028e-015 3.18055e-015 1.59028e-015 -8.82782e-032 3.18056e-015 1.59028e-015 6.76028 1.13192 26.7827 -1.48855 -4.3543 62.8325 -39.0038 18.0872 30.5697 -32.8157 15.796 -12.459 4.41391e-032 -3.18055e-015 7.95139e-016 7.95139e-016 -6.36111e-015 -2.78299e-015 -0.778365 4.75063 -0.816801 
8.30253 95.4633 -8.20187 -1.26416 1.87434 13.2094 -0.846851 0.095938 2.92813 5.3256 -13.4218 3.68398 -0.543566 16.6465 -6.27894 -1.93297 -5.08794 -3.73919 0.622335 -10.0313 -0.285091 -6.53245 -3.35648 -5.91116 0.634248 11.9594 -2.5706 0.623575 -7.88382 -14.4432 0.122886 -11.6428 0.240053 -1.69729 0.145386 5.86003 -1.6973 0.145387 5.86004 -5.24518 2.22389 0.657114 -26.8214 4.91835 -14.7194 -41.988 38.7306 0.746829 10.2356 5.54992 -19.2758 -5.04248 -0.248314 -0.52808 1.76556e-031 -3.18055e-015 3.18055e-015 1.59028e-015 -3.18056e-015 3.18055e-015 6.39382 0.690667 26.6855 3.27413 -5.30898 62.7322 -40.3904 18.9834 33.304 -31.1108 14.805 -12.2788 4.77083e-015 0 4.77083e-015 1.59028e-015 0 3.97569e-016 -0.302472 5.37132 -0.913991 
8.32757 95.4664 -8.27813 -1.33101 1.84056 12.861 -0.849139 0.101165 2.97398 5.40327 -13.444 3.81769 -0.485551 16.7493 -6.20043 -1.94208 -5.15041 -3.66249 0.624235 -10.028 -0.282387 -6.46864 -3.45005 -6.03393 0.550632 11.9111 -2.47257 0.696597 -7.74755 -14.1474 0.128791 -11.6504 0.288395 -1.72117 0.157122 5.95451 -1.73598 0.157172 5.95289 -4.80563 2.25568 0.159503 -27.3425 4.74388 -14.4593 -41.9489 38.9063 0.92261 10.1477 5.8321 -18.725 -5.23353 -0.211854 -0.47602 0 6.36111e-015 -0 0 3.18056e-015 -0 6.61421 0.837683 26.5954 3.70106 -5.64529 62.3067 -40.2128 18.7772 34.9299 -31.8678 13.8988 -10.9238 2.38542e-015 -3.18055e-015 -3.18055e-015 1.59028e-015 -3.18056e-015 -3.57812e-015 -0.498484 6.0233 -1.20794 
8.36044 95.4616 -8.33791 -1.23894 1.62751 12.5871 -0.853287 0.169382 2.96955 5.329 -13.326 2.04727 -0.959356 16.8042 -4.81214 -1.93856 -5.15943 -3.02383 0.669072 -10.0666 -0.210956 -6.57577 -3.43447 -6.11427 0.563219 12.028 -2.15351 0.725267 -7.766 -14.0802 0.0877315 -11.6449 0.281811 -1.72527 0.29396 5.94422 -1.72527 0.29396 5.94424 -4.94853 2.54076 -0.204407 -27.4604 4.43513 -14.4405 -41.9246 38.8077 1.20688 9.98338 5.87025 -18.5452 -5.03795 -0.200666 -0.334049 -1.59028e-015 9.54166e-015 -4.77083e-015 -1.59028e-015 9.54167e-015 -3.18055e-015 8.22479 0.895768 26.0473 1.9262 -4.25086 60.1105 -42.9393 16.3955 39.6098 -33.6762 14.3916 -10.888 -7.95139e-016 -3.18055e-015 -4.77083e-015 -7.95139e-016 -3.18056e-015 -5.96354e-015 -0.134938 5.93297 -1.7193 
8.37764 95.457 -8.40071 -1.16933 1.32886 12.2909 -0.853344 0.244336 2.83378 5.39063 -13.0471 2.67743 -0.879131 16.801 -4.94283 -1.89422 -5.1984 -3.04585 0.626902 -10.0318 -0.276644 -6.59515 -3.3679 -5.85414 0.559542 12.1133 -1.98716 0.752435 -7.74987 -14.0404 0.0604346 -11.6354 0.275472 -1.72638 0.445896 5.67304 -1.72639 0.445898 5.67306 -4.71219 2.81686 -0.455102 -27.6999 4.02882 -14.2314 -42.2554 38.4235 1.67502 9.88504 5.81089 -18.6209 -4.7305 -0.176523 -0.339515 1.59028e-015 9.54166e-015 -1.59028e-015 -3.18055e-015 6.36111e-015 -3.18055e-015 9.98928 1.14549 25.8592 0.88232 -2.34533 57.9485 -46.7495 13.6832 45.3573 -32.16 13.2879 -9.75164 -3.57812e-015 0 -3.97569e-015 -3.97569e-015 3.18056e-015 -3.18055e-015 -0.369766 6.15371 -1.83604 
8.41526 95.4627 -8.50192 -1.12474 1.1716 11.8972 -0.834995 0.289497 2.66705 5.42962 -12.9194 3.05643 -0.861881 16.8414 -4.82341 -1.91833 -5.16351 -3.03234 0.661047 -10.0747 -0.238526 -6.68113 -3.44199 -5.29828 0.65763 12.1501 -2.04195 0.779556 -7.66731 -13.9872 0.0253276 -11.6316 0.289741 -1.6989 0.539366 5.34046 -1.6989 0.539367 5.34049 -4.62451 2.57031 -0.673365 -27.8241 3.99969 -13.5484 -42.5714 38.5688 1.9721 9.9114 5.81308 -18.6632 -4.70509 -0.223101 -0.443904 1.59028e-015 -3.18055e-015 1.59028e-015 -1.59028e-015 0 3.18055e-015 12.4972 2.07093 25.5557 2.18796 -0.677253 55.1909 -49.04 10.3303 53.7301 -27.2744 11.6405 -8.34982 -3.18055e-015 0 -1.98785e-015 -4.77083e-015 6.36111e-015 -1.19271e-015 -0.547987 7.28877 -1.95359 
8.4267 95.4595 -8.59951 -1.07258 1.02039 11.4164 -0.816651 0.329538 2.55177 5.52272 -12.7537 4.07987 -0.764181 16.8692 -5.11176 -1.89673 -5.16746 -3.16657 0.657493 -10.0754 -0.248112 -6.74976 -3.58259 -5.22417 0.594756 12.3057 -1.75426 0.873191 -7.64011 -13.7458 -0.0323025 -11.626 0.310072 -1.66956 0.621822 5.10996 -1.66956 0.621818 5.10995 -4.13996 2.91792 -1.11334 -28.0992 3.53483 -13.5485 -43.3045 38.7387 2.45775 9.96236 5.46463 -18.6065 -4.58399 -0.185635 -0.537127 -1.59028e-015 6.36111e-015 1.59028e-015 1.59028e-015 3.18056e-015 -1.59028e-015 14.9008 2.41749 24.9028 5.40797 1.11332 52.0275 -49.2618 7.4099 62.8626 -20.6711 10.1335 -6.65317 -3.18055e-015 0 -7.15625e-015 -1.59028e-015 3.18056e-015 -3.97569e-015 -0.857211 7.45013 -2.15407 
8.46344 95.4586 -8.67507 -0.932329 0.762334 10.8373 -0.787677 0.445029 2.34852 5.49979 -12.4541 4.54551 -0.7748 16.7894 -4.90049 -1.88768 -5.16675 -3.06274 0.652166 -10.0758 -0.25007 -6.93514 -3.71433 -5.22757 0.527712 12.524 -1.41399 1.06541 -7.68036 -13.3172 -0.158235 -11.6157 0.374561 -1.63001 0.856582 4.70397 -1.63001 0.856584 4.70399 -4.35561 2.98513 -1.19276 -27.5884 3.27228 -13.1946 -44.0712 38.9914 2.4795 10.2713 5.25425 -18.6154 -4.55952 -0.22058 -0.52363 1.59028e-015 3.18055e-015 -0 1.59028e-015 0 -1.59028e-015 17.7427 2.91463 24.1073 9.60164 3.18713 48.3224 -48.3985 6.07452 71.1989 -11.1936 7.63041 -4.67054 4.77083e-015 0 1.59028e-015 6.36111e-015 0 -0 -0.361132 7.56543 -2.44258 
8.48791 95.4588 -8.74557 -0.779738 0.537734 10.2902 -0.79002 0.516856 2.14807 5.47746 -12.1231 5.03755 -0.745045 16.6562 -4.6914 -1.91591 -5.13917 -3.05063 0.646499 -10.0742 -0.241333 -7.11531 -3.82986 -5.01926 0.539557 12.7457 -1.29882 1.2444 -7.73535 -12.921 -0.296667 -11.5966 0.443156 -1.6523 1.00269 4.30309 -1.6523 1.00269 4.3031 -3.53729 3.48727 -1.67796 -28.0823 2.49199 -12.88 -44.8122 38.4432 2.63209 10.3228 5.38713 -18.8244 -4.14062 -0.147431 -0.563422 1.59028e-015 3.18055e-015 -1.59028e-015 3.18055e-015 3.18056e-015 -3.18055e-015 20.5909 3.26493 23.4275 13.2147 6.57552 43.4135 -45.7871 5.16729 77.6329 -0.143714 6.19188 -5.28039 -1.59028e-015 0 -3.18055e-015 0 0 -3.18055e-015 -0.675545 7.63761 -2.58282 
8.48946 95.4538 -8.82613 -0.706493 0.398383 9.80257 -0.773268 0.597142 1.93845 5.49993 -11.9729 5.68499 -0.682071 16.634 -4.71527 -1.94042 -5.14663 -3.00133 0.644978 -10.0681 -0.220596 -7.24954 -4.03603 -4.7141 0.584021 12.9298 -1.28634 1.38086 -7.76442 -12.5794 -0.419257 -11.5784 0.498936 -1.62251 1.1668 3.88443 -1.62251 1.1668 3.88445 -3.07783 3.80053 -2.1377 -28.3244 1.95016 -12.6069 -45.4803 37.7603 2.64616 10.3644 5.45868 -19.0657 -3.82638 -0.19343 -0.789928 1.59028e-015 6.36111e-015 -1.59028e-015 1.59028e-015 3.18056e-015 -3.18055e-015 23.5251 3.83893 23.1397 17.0434 10.5278 36.2242 -37.7347 4.95949 81.9433 8.32894 6.4036 -10.4252 -7.95139e-016 -1.19271e-015 -3.18055e-015 -1.19271e-015 3.97569e-016 -0 -0.673377 7.82514 -2.89259 
8.4887 95.456 -8.87714 -0.590359 0.18589 9.33938 -0.767988 0.699738 1.73364 5.49137 -11.7001 6.28418 -0.588806 16.4971 -4.88637 -1.96494 -5.12933 -2.8209 0.651242 -10.0569 -0.184395 -7.37227 -4.15792 -4.34204 0.651446 13.0973 -1.21768 1.45692 -7.79495 -12.3724 -0.515421 -11.5633 0.535884 -1.63626 1.3747 3.47503 -1.63625 1.3747 3.47502 -2.20976 4.2458 -2.74557 -28.7042 1.25197 -12.4863 -46.7436 38.6622 3.66095 10.8132 3.97987 -20.3381 -3.68013 -0.303425 -0.32434 1.76556e-031 -6.36111e-015 1.59028e-015 -1.59028e-015 -6.36111e-015 1.59028e-015 26.7767 4.51931 22.927 18.6337 16.0306 28.3022 -31.8198 4.72507 81.4982 12.0203 4.28938 -13.5815 4.77083e-015 3.18055e-015 3.18055e-015 6.36111e-015 1.59028e-015 3.18055e-015 -0.867187 7.76767 -3.16152 
8.47328 95.4437 -8.94078 -0.49984 0.0424739 8.93828 -0.690225 0.81487 1.53367 5.36123 -11.605 5.7047 -0.732118 16.4596 -4.31757 -1.99928 -5.16374 -2.26923 0.656228 -10.0362 -0.11423 -7.56302 -4.39491 -4.46851 0.600822 13.3619 -0.870432 1.58095 -7.88267 -12.0104 -0.629311 -11.5441 0.577585 -1.49539 1.60972 3.07476 -1.49539 1.60972 3.07476 -2.10841 4.17013 -3.16031 -28.7013 1.08702 -12.0511 -48.4429 41.3799 5.16806 11.7668 0.766946 -21.9828 -3.79719 -0.399213 0.0778262 -0 -1.59028e-014 -0 -1.59028e-015 -1.59028e-014 1.59028e-015 29.6747 5.26335 22.1554 21.2455 21.6464 20.2951 -25.1821 3.50697 77.9645 15.4889 1.56076 -18.0205 -0 0 3.18055e-015 -3.18055e-015 0 6.36111e-015 -0.63501 8.25861 -3.59303 
